<svg width="96" height="96" viewBox="0 0 96 96" fill="none" xmlns="http://www.w3.org/2000/svg">
<path d="M47.5281 3.34874C47.6843 2.90226 48.3157 2.90226 48.4719 3.34874L49.4544 6.15653C49.5246 6.35709 49.7139 6.49139 49.9264 6.49139H53.0222C53.5155 6.49139 53.7108 7.13 53.3019 7.40588L50.8626 9.05156C50.6742 9.17863 50.5952 9.41673 50.6703 9.63119L51.6168 12.3361C51.7757 12.7903 51.2641 13.1849 50.8652 12.9158L48.2796 11.1714C48.1106 11.0574 47.8894 11.0574 47.7204 11.1714L45.1348 12.9158C44.7359 13.1849 44.2243 12.7903 44.3832 12.3361L45.3297 9.63119C45.4048 9.41673 45.3258 9.17863 45.1374 9.05156L42.6981 7.40588C42.2892 7.13 42.4845 6.49139 42.9778 6.49139H46.0736C46.2861 6.49139 46.4754 6.35709 46.5456 6.15653L47.5281 3.34874Z" fill="#35BFCA"/>
<path d="M47.5245 81.4635C47.6741 81.0029 48.3259 81.0029 48.4755 81.4635L49.4593 84.4914C49.5263 84.6974 49.7183 84.8369 49.9349 84.8369H53.1186C53.6029 84.8369 53.8043 85.4567 53.4124 85.7414L50.8368 87.6127C50.6615 87.74 50.5882 87.9657 50.6552 88.1717L51.639 91.1996C51.7886 91.6602 51.2614 92.0433 50.8695 91.7586L48.2939 89.8873C48.1186 89.76 47.8814 89.76 47.7061 89.8873L45.1305 91.7586C44.7386 92.0433 44.2114 91.6602 44.361 91.1996L45.3448 88.1717C45.4118 87.9657 45.3385 87.74 45.1632 87.6127L42.5876 85.7414C42.1957 85.4567 42.3971 84.8369 42.8814 84.8369H46.0651C46.2817 84.8369 46.4737 84.6974 46.5407 84.4914L47.5245 81.4635Z" fill="#35BFCA"/>
<path d="M67.0245 8.46353C67.1741 8.00287 67.8259 8.00287 67.9755 8.46353L68.8471 11.1459C68.914 11.3519 69.106 11.4914 69.3226 11.4914H72.143C72.6274 11.4914 72.8288 12.1112 72.4369 12.3959L70.1552 14.0537C69.9799 14.181 69.9066 14.4067 69.9735 14.6127L70.8451 17.2951C70.9948 17.7557 70.4675 18.1388 70.0757 17.8541L67.7939 16.1963C67.6186 16.069 67.3814 16.069 67.2061 16.1963L64.9243 17.8541C64.5325 18.1388 64.0052 17.7557 64.1549 17.2951L65.0265 14.6127C65.0934 14.4067 65.0201 14.181 64.8448 14.0537L62.5631 12.3959C62.1712 12.1112 62.3726 11.4914 62.857 11.4914H65.6774C65.894 11.4914 66.086 11.3519 66.1529 11.1459L67.0245 8.46353Z" fill="#35BFCA"/>
<path d="M28.9755 8.46353C28.8259 8.00287 28.1741 8.00287 28.0245 8.46353L27.1529 11.1459C27.086 11.3519 26.894 11.4914 26.6774 11.4914H23.857C23.3726 11.4914 23.1712 12.1112 23.5631 12.3959L25.8448 14.0537C26.0201 14.181 26.0934 14.4067 26.0265 14.6127L25.1549 17.2951C25.0052 17.7557 25.5325 18.1388 25.9243 17.8541L28.2061 16.1963C28.3814 16.069 28.6186 16.069 28.7939 16.1963L31.0757 17.8541C31.4675 18.1388 31.9948 17.7557 31.8451 17.2951L30.9735 14.6127C30.9066 14.4067 30.9799 14.181 31.1552 14.0537L33.4369 12.3959C33.8288 12.1112 33.6274 11.4914 33.143 11.4914H30.3226C30.106 11.4914 29.914 11.3519 29.8471 11.1459L28.9755 8.46353Z" fill="#35BFCA"/>
<path d="M67.0213 76.5866C67.1644 76.1125 67.8356 76.1125 67.9787 76.5866L68.8521 79.4813C68.9158 79.6924 69.1102 79.8369 69.3307 79.8369H72.2314C72.7068 79.8369 72.9139 80.4377 72.5395 80.7307L70.1306 82.6155C69.9682 82.7425 69.9005 82.9563 69.9601 83.1537L70.8649 86.1527C71.0059 86.62 70.4625 86.9917 70.0781 86.691L67.8081 84.9148C67.6271 84.7732 67.3729 84.7732 67.1919 84.9148L64.9219 86.691C64.5375 86.9917 63.9941 86.62 64.1351 86.1527L65.0399 83.1537C65.0995 82.9563 65.0318 82.7425 64.8694 82.6155L62.4605 80.7307C62.0861 80.4377 62.2932 79.8369 62.7686 79.8369H65.6693C65.8898 79.8369 66.0842 79.6924 66.1479 79.4813L67.0213 76.5866Z" fill="#35BFCA"/>
<path d="M28.9787 76.5866C28.8356 76.1125 28.1644 76.1125 28.0213 76.5866L27.1479 79.4813C27.0842 79.6924 26.8898 79.8369 26.6693 79.8369H23.7686C23.2932 79.8369 23.0861 80.4377 23.4605 80.7307L25.8694 82.6155C26.0318 82.7425 26.0995 82.9563 26.0399 83.1537L25.1351 86.1527C24.9941 86.62 25.5375 86.9917 25.9219 86.691L28.1919 84.9148C28.3729 84.7732 28.6271 84.7732 28.8081 84.9148L31.0781 86.691C31.4625 86.9917 32.0059 86.62 31.8649 86.1527L30.9601 83.1537C30.9005 82.9563 30.9682 82.7425 31.1306 82.6155L33.5395 80.7307C33.9139 80.4377 33.7068 79.8369 33.2314 79.8369H30.3307C30.1102 79.8369 29.9158 79.6924 29.8521 79.4813L28.9787 76.5866Z" fill="#35BFCA"/>
<path d="M81.5245 22.4635C81.6741 22.0029 82.3259 22.0029 82.4755 22.4635L83.4593 25.4914C83.5263 25.6974 83.7183 25.8369 83.9349 25.8369H87.1186C87.6029 25.8369 87.8043 26.4567 87.4124 26.7414L84.8368 28.6127C84.6615 28.74 84.5882 28.9657 84.6552 29.1717L85.639 32.1996C85.7886 32.6602 85.2614 33.0433 84.8695 32.7586L82.2939 30.8873C82.1186 30.76 81.8814 30.76 81.7061 30.8873L79.1305 32.7586C78.7386 33.0433 78.2114 32.6602 78.361 32.1996L79.3448 29.1717C79.4118 28.9657 79.3385 28.74 79.1632 28.6127L76.5876 26.7414C76.1957 26.4567 76.3971 25.8369 76.8814 25.8369H80.0651C80.2817 25.8369 80.4737 25.6974 80.5407 25.4914L81.5245 22.4635Z" fill="#35BFCA"/>
<path d="M14.4755 22.4635C14.3259 22.0029 13.6741 22.0029 13.5245 22.4635L12.5407 25.4914C12.4737 25.6974 12.2817 25.8369 12.0651 25.8369H8.88144C8.39708 25.8369 8.1957 26.4567 8.58755 26.7414L11.1632 28.6127C11.3385 28.74 11.4118 28.9657 11.3448 29.1717L10.361 32.1996C10.2114 32.6602 10.7386 33.0433 11.1305 32.7586L13.7061 30.8873C13.8814 30.76 14.1186 30.76 14.2939 30.8873L16.8695 32.7586C17.2614 33.0433 17.7886 32.6602 17.639 32.1996L16.6552 29.1717C16.5882 28.9657 16.6615 28.74 16.8368 28.6127L19.4124 26.7414C19.8043 26.4567 19.6029 25.8369 19.1186 25.8369H15.9349C15.7183 25.8369 15.5263 25.6974 15.4593 25.4914L14.4755 22.4635Z" fill="#35BFCA"/>
<path d="M86.5215 41.5778C86.665 41.1046 87.335 41.1046 87.4785 41.5778L88.464 44.8275C88.5279 45.0382 88.7222 45.1824 88.9425 45.1824H92.2011C92.6771 45.1824 92.8838 45.7845 92.5082 46.0769L89.8139 48.1743C89.6506 48.3014 89.5825 48.5159 89.6426 48.7139L90.6575 52.0607C90.7991 52.5275 90.2568 52.9 89.8719 52.6003L87.3071 50.6038C87.1265 50.4632 86.8735 50.4632 86.6929 50.6038L84.1281 52.6003C83.7432 52.9 83.2009 52.5275 83.3425 52.0607L84.3574 48.7139C84.4175 48.5159 84.3494 48.3014 84.1861 48.1743L81.4918 46.0769C81.1162 45.7845 81.3229 45.1824 81.7989 45.1824H85.0575C85.2778 45.1824 85.4721 45.0382 85.536 44.8275L86.5215 41.5778Z" fill="#35BFCA"/>
<path d="M9.47848 41.5778C9.33498 41.1046 8.66502 41.1046 8.52152 41.5778L7.53603 44.8275C7.47211 45.0382 7.2778 45.1824 7.05755 45.1824H3.7989C3.32292 45.1824 3.11617 45.7845 3.49176 46.0769L6.18608 48.1743C6.34935 48.3014 6.41747 48.5159 6.35743 48.7139L5.3425 52.0607C5.20094 52.5275 5.7432 52.9 6.12811 52.6003L8.69287 50.6038C8.87349 50.4632 9.12651 50.4632 9.30713 50.6038L11.8719 52.6003C12.2568 52.9 12.7991 52.5275 12.6575 52.0607L11.6426 48.7139C11.5825 48.5159 11.6506 48.3014 11.8139 48.1743L14.5082 46.0769C14.8838 45.7845 14.6771 45.1824 14.2011 45.1824H10.9425C10.7222 45.1824 10.5279 45.0382 10.464 44.8275L9.47848 41.5778Z" fill="#35BFCA"/>
<path d="M81.5245 62.4635C81.6741 62.0029 82.3259 62.0029 82.4755 62.4635L83.4593 65.4914C83.5263 65.6974 83.7183 65.8369 83.9349 65.8369H87.1186C87.6029 65.8369 87.8043 66.4567 87.4124 66.7414L84.8368 68.6127C84.6615 68.74 84.5882 68.9657 84.6552 69.1717L85.639 72.1996C85.7886 72.6602 85.2614 73.0433 84.8695 72.7586L82.2939 70.8873C82.1186 70.76 81.8814 70.76 81.7061 70.8873L79.1305 72.7586C78.7386 73.0433 78.2114 72.6602 78.361 72.1996L79.3448 69.1717C79.4118 68.9657 79.3385 68.74 79.1632 68.6127L76.5876 66.7414C76.1957 66.4567 76.3971 65.8369 76.8814 65.8369H80.0651C80.2817 65.8369 80.4737 65.6974 80.5407 65.4914L81.5245 62.4635Z" fill="#35BFCA"/>
<path d="M14.4755 62.4635C14.3259 62.0029 13.6741 62.0029 13.5245 62.4635L12.5407 65.4914C12.4737 65.6974 12.2817 65.8369 12.0651 65.8369H8.88144C8.39708 65.8369 8.1957 66.4567 8.58755 66.7414L11.1632 68.6127C11.3385 68.74 11.4118 68.9657 11.3448 69.1717L10.361 72.1996C10.2114 72.6602 10.7386 73.0433 11.1305 72.7586L13.7061 70.8873C13.8814 70.76 14.1186 70.76 14.2939 70.8873L16.8695 72.7586C17.2614 73.0433 17.7886 72.6602 17.639 72.1996L16.6552 69.1717C16.5882 68.9657 16.6615 68.74 16.8368 68.6127L19.4124 66.7414C19.8043 66.4567 19.6029 65.8369 19.1186 65.8369H15.9349C15.7183 65.8369 15.5263 65.6974 15.4593 65.4914L14.4755 62.4635Z" fill="#35BFCA"/>
<circle cx="48" cy="48" r="17" fill="#35BFCA"/>
<circle cx="48" cy="48" r="26" stroke="#FD8407"/>
<path d="M43 47.5L47 52L53 43" stroke="#EAF0F4" stroke-width="2" stroke-linecap="round" stroke-linejoin="round"/>
</svg>
