<svg width="96" height="96" viewBox="0 0 96 96" fill="none" xmlns="http://www.w3.org/2000/svg">
<path d="M12 26C12 24.3431 13.3431 23 15 23H81C82.6569 23 84 24.3431 84 26V70H12V26Z" stroke="#FD8407" stroke-linejoin="round"/>
<rect x="2" y="73" width="92" height="6" rx="2" fill="#35BFCA"/>
<rect x="18" y="28" width="18" height="23" rx="3" fill="#35BFCA"/>
<rect x="39" y="28" width="39" height="11" rx="3" fill="#35BFCA"/>
<rect x="39" y="42" width="18" height="23" rx="3" fill="#35BFCA"/>
<rect x="60" y="42" width="18" height="7" rx="3" fill="#35BFCA"/>
<rect x="18" y="54" width="18" height="11" rx="3" fill="#35BFCA"/>
<rect x="60" y="52" width="18" height="13" rx="3" fill="#35BFCA"/>
<path d="M45 53L47.8 56L52 50" stroke="#EAF0F4" stroke-width="2" stroke-linecap="round" stroke-linejoin="round"/>
</svg>
