<svg width="96" height="96" viewBox="0 0 96 96" fill="none" xmlns="http://www.w3.org/2000/svg">
<path d="M26.5 20.5278L37.25 37.2501H15.75L26.5 20.5278Z" fill="#35BFCA" stroke="#EAF0F4"/>
<path d="M37.25 37.25L48 20.5278H26.5L37.25 37.25Z" fill="#35BFCA" stroke="#EAF0F4"/>
<path d="M48 20.5278L58.75 37.2501H37.25L48 20.5278Z" fill="#35BFCA" stroke="#EAF0F4"/>
<path d="M48 79.0557L58.75 37.2501H37.25L48 79.0557Z" fill="#35BFCA" stroke="#EAF0F4"/>
<path d="M58.75 37.25L69.5 20.5278H48L58.75 37.25Z" fill="#35BFCA" stroke="#EAF0F4"/>
<path d="M69.5 20.5278L80.25 37.2501H58.75L69.5 20.5278Z" fill="#35BFCA" stroke="#EAF0F4"/>
<path d="M48 79.0557L80.25 37.2501H58.75L48 79.0557Z" fill="#35BFCA" stroke="#EAF0F4"/>
<path d="M48 79.0557L15.75 37.2501H37.25L48 79.0557Z" fill="#35BFCA" stroke="#EAF0F4"/>
<path d="M48 12.1667V5" stroke="#FD8407" stroke-linecap="round" stroke-linejoin="round"/>
<path d="M48 90.9999V83.8333" stroke="#FD8407" stroke-linecap="round" stroke-linejoin="round"/>
<path d="M12.1667 48L5 48" stroke="#FD8407" stroke-linecap="round" stroke-linejoin="round"/>
<path d="M91.0007 48L83.834 48" stroke="#FD8407" stroke-linecap="round" stroke-linejoin="round"/>
<path d="M26.2453 69.7547L21.1777 74.8223" stroke="#FD8407" stroke-linecap="round" stroke-linejoin="round"/>
<path d="M81.9895 14.0113L76.9219 19.0789" stroke="#FD8407" stroke-linecap="round" stroke-linejoin="round"/>
<path d="M70.948 69.7547L76.0156 74.8223" stroke="#FD8407" stroke-linecap="round" stroke-linejoin="round"/>
<path d="M15.2058 14.0113L20.2734 19.0789" stroke="#FD8407" stroke-linecap="round" stroke-linejoin="round"/>
</svg>
