<svg width="96" height="96" viewBox="0 0 96 96" fill="none" xmlns="http://www.w3.org/2000/svg">
<path fill-rule="evenodd" clip-rule="evenodd" d="M60.4223 87.8458C68.0867 87.8458 84.9482 64.4423 84.9482 50.8038C84.9482 37.1653 73.9676 26.1091 60.4223 26.1091C46.8771 26.1091 35.8965 37.1653 35.8965 50.8038C35.8965 64.4423 52.758 87.8458 60.4223 87.8458ZM60.4222 63.3202C67.4283 63.3202 73.1078 57.6407 73.1078 50.6346C73.1078 43.6285 67.4283 37.949 60.4222 37.949C53.4161 37.949 47.7366 43.6285 47.7366 50.6346C47.7366 57.6407 53.4161 63.3202 60.4222 63.3202Z" fill="#35BFCA"/>
<path d="M27.114 28.6571C27.114 29.9213 26.7177 31.4516 26.0488 33.058C25.3826 34.6578 24.46 36.3003 23.4403 37.7793C22.4196 39.2597 21.3122 40.5614 20.2834 41.4866C19.7687 41.9493 19.2838 42.3089 18.8482 42.5503C18.4067 42.795 18.0515 42.8984 17.7865 42.8984V43.8984C18.2893 43.8984 18.8171 43.7108 19.3329 43.4249C19.8546 43.1358 20.4013 42.7253 20.952 42.2301C22.0538 41.2394 23.2112 39.8734 24.2636 38.3469C25.3169 36.8191 26.2753 35.1155 26.9719 33.4424C27.6658 31.776 28.114 30.1068 28.114 28.6571H27.114ZM17.7865 19.3296C22.938 19.3296 27.114 23.5057 27.114 28.6571H28.114C28.114 22.9534 23.4902 18.3296 17.7865 18.3296V19.3296ZM8.45898 28.6571C8.45898 23.5057 12.6351 19.3296 17.7865 19.3296V18.3296C12.0828 18.3296 7.45898 22.9534 7.45898 28.6571H8.45898ZM17.7865 42.8984C17.5215 42.8984 17.1664 42.795 16.7249 42.5503C16.2893 42.3089 15.8043 41.9493 15.2897 41.4866C14.2608 40.5614 13.1534 39.2597 12.1327 37.7793C11.1131 36.3003 10.1904 34.6578 9.52424 33.058C8.85534 31.4516 8.45898 29.9213 8.45898 28.6571H7.45898C7.45898 30.1068 7.90718 31.776 8.60108 33.4424C9.29775 35.1155 10.2561 36.8191 11.3094 38.3469C12.3618 39.8734 13.5193 41.2394 14.621 42.2301C15.1717 42.7253 15.7184 43.1358 16.2401 43.4249C16.7559 43.7108 17.2837 43.8984 17.7865 43.8984V42.8984ZM22.2006 28.6568C22.2006 31.0945 20.2245 33.0706 17.7869 33.0706V34.0706C20.7768 34.0706 23.2006 31.6467 23.2006 28.6568H22.2006ZM17.7869 24.243C20.2245 24.243 22.2006 26.2192 22.2006 28.6568H23.2006C23.2006 25.6669 20.7768 23.243 17.7869 23.243V24.243ZM13.3731 28.6568C13.3731 26.2192 15.3492 24.243 17.7869 24.243V23.243C14.7969 23.243 12.3731 25.6669 12.3731 28.6568H13.3731ZM17.7869 33.0706C15.3492 33.0706 13.3731 31.0945 13.3731 28.6568H12.3731C12.3731 31.6467 14.7969 34.0706 17.7869 34.0706V33.0706Z" fill="#FD8407"/>
<path fill-rule="evenodd" clip-rule="evenodd" d="M42.3553 18.8884C44.3414 18.8884 48.7107 12.8653 48.7107 9.35534C48.7107 5.84538 45.8653 3 42.3553 3C38.8454 3 36 5.84538 36 9.35534C36 12.8653 40.3693 18.8884 42.3553 18.8884ZM42.3548 12.5328C44.1098 12.5328 45.5325 11.1101 45.5325 9.3551C45.5325 7.60012 44.1098 6.17743 42.3548 6.17743C40.5998 6.17743 39.1771 7.60012 39.1771 9.3551C39.1771 11.1101 40.5998 12.5328 42.3548 12.5328Z" fill="#35BFCA"/>
</svg>
