<svg width="96" height="96" viewBox="0 0 96 96" fill="none" xmlns="http://www.w3.org/2000/svg">
<rect x="61.4355" y="67.0918" width="8" height="9" rx="2" transform="rotate(-45 61.4355 67.0918)" fill="#35BFCA"/>
<path fill-rule="evenodd" clip-rule="evenodd" d="M44 19C44 17.3431 45.3431 16 47 16H49C50.6569 16 52 17.3431 52 19V19.7335C52 21.2136 53.0855 22.4539 54.5186 22.8239C56.8914 23.4365 59.1329 24.3757 61.1923 25.5907C62.4666 26.3425 64.1106 26.2325 65.1568 25.1863L65.6776 24.6654C66.8492 23.4939 68.7487 23.4939 69.9202 24.6654L71.3344 26.0797C72.506 27.2512 72.506 29.1507 71.3344 30.3223L70.8137 30.8431C69.7674 31.8893 69.6574 33.5333 70.4093 34.8076C71.6243 36.867 72.5635 39.1085 73.1761 41.4814C73.5461 42.9145 74.7864 44 76.2665 44H77C78.6569 44 80 45.3431 80 47V49C80 50.6569 78.6569 52 77 52H76.2665C74.7864 52 73.5459 53.0863 73.1759 54.5193C70.8208 63.6402 63.6402 70.8208 54.5193 73.1759C53.0863 73.5459 52 74.7864 52 76.2665V77C52 78.6569 50.6569 80 49 80H47C45.3431 80 44 78.6569 44 77V76.2665C44 74.7864 42.9145 73.5461 41.4814 73.1761C39.1086 72.5635 36.8671 71.6243 34.8077 70.4093C33.5334 69.6575 31.8895 69.7675 30.8432 70.8137L30.3225 71.3345C29.1509 72.5061 27.2514 72.5061 26.0799 71.3345L24.6656 69.9203C23.4941 68.7487 23.4941 66.8492 24.6656 65.6776L25.1863 65.1569C26.2326 64.1107 26.3426 62.4668 25.5907 61.1924C24.3757 59.133 23.4365 56.8915 22.8239 54.5186C22.4539 53.0855 21.2136 52 19.7335 52H19C17.3431 52 16 50.6569 16 49V47C16 45.3431 17.3431 44 19 44H19.7335C21.2136 44 22.4539 42.9145 22.8239 41.4814C23.4366 39.1084 24.3759 36.8667 25.591 34.8072C26.3428 33.5328 26.2329 31.8889 25.1866 30.8426L24.6662 30.3222C23.4947 29.1507 23.4947 27.2512 24.6662 26.0796L26.0805 24.6654C27.252 23.4938 29.1515 23.4938 30.3231 24.6654L30.8437 25.186C31.8899 26.2322 33.5338 26.3422 34.8081 25.5904C36.8674 24.3756 39.1087 23.4365 41.4814 22.8239C42.9145 22.4539 44 21.2136 44 19.7335V19ZM48 63C56.2843 63 63 56.2843 63 48C63 39.7157 56.2843 33 48 33C39.7157 33 33 39.7157 33 48C33 56.2843 39.7157 63 48 63Z" fill="#35BFCA"/>
<path d="M43 8H17C12.0294 8 8 12.0294 8 17V35" stroke="#FD8407" stroke-linecap="round" stroke-linejoin="round"/>
<path d="M40 5L42.9993 8L40 11" stroke="#FD8407" stroke-linecap="round" stroke-linejoin="round"/>
<path d="M53 88H79C83.9706 88 88 83.9706 88 79V61" stroke="#FD8407" stroke-linecap="round" stroke-linejoin="round"/>
<path d="M56 91L53.0007 88L56 85" stroke="#FD8407" stroke-linecap="round" stroke-linejoin="round"/>
<path d="M80 12V20" stroke="#35BFCA" stroke-width="2" stroke-linecap="round" stroke-linejoin="round"/>
<path d="M76 16L84 16" stroke="#35BFCA" stroke-width="2" stroke-linecap="round" stroke-linejoin="round"/>
<path d="M16 76V84" stroke="#35BFCA" stroke-width="2" stroke-linecap="round" stroke-linejoin="round"/>
<path d="M12 80L20 80" stroke="#35BFCA" stroke-width="2" stroke-linecap="round" stroke-linejoin="round"/>
</svg>
