<svg width="66" height="66" viewBox="0 0 66 66" fill="none" xmlns="http://www.w3.org/2000/svg">
<rect x="1" y="1" width="64" height="64" rx="12" stroke="#B7C0CA"/>
<path fill-rule="evenodd" clip-rule="evenodd" d="M10.8223 45.3977L32.4409 61.8879V54.5899L18.075 43.6659H10.8223V45.3977ZM19.1512 22.3332H10.8223V21.4197L32.4409 4.92944V12.2275L19.1512 22.3332Z" fill="#B7C0CA"/>
<path fill-rule="evenodd" clip-rule="evenodd" d="M8.17613 1.58569C3.99931 3.03138 1 6.99938 1 11.6679V54.3332C1 59.0018 3.99931 62.9698 8.17613 64.4155V41.4212H32.4365V24.5796H8.17613V1.58569Z" fill="#B7C0CA"/>
<path d="M52.6477 13.3518L53.9081 17.2309H57.9868L54.687 19.6283L55.9474 23.5074L52.6477 21.11L49.3479 23.5074L50.6083 19.6283L47.3086 17.2309H51.3873L52.6477 13.3518Z" stroke="#B7C0CA" stroke-linejoin="round"/>
<path d="M41.4348 38.0521L42.6952 41.9312H46.7739L43.4742 44.3286L44.7345 48.2077L41.4348 45.8103L38.1351 48.2077L39.3954 44.3286L36.0957 41.9312H40.1744L41.4348 38.0521Z" stroke="#B7C0CA" stroke-linejoin="round"/>
<path fill-rule="evenodd" clip-rule="evenodd" d="M54.8326 64.9883C54.6662 64.996 54.4988 64.9999 54.3305 64.9999H50.459L50.6083 64.5403L47.3086 62.1429H51.3873L52.6477 58.2638L53.9081 62.1429H57.9868L54.687 64.5403L54.8326 64.9883Z" stroke="#B7C0CA" stroke-linejoin="round"/>
<path fill-rule="evenodd" clip-rule="evenodd" d="M64.9946 37.0092V42.1334L63.8743 41.3194L60.5745 43.7168L61.8349 39.8378L58.5352 37.4404H62.6139L63.8743 33.5613L64.9946 37.0092Z" stroke="#B7C0CA" stroke-linejoin="round"/>
</svg>
